<svg width="133" height="35" viewBox="0 0 133 35" fill="none" xmlns="http://www.w3.org/2000/svg">
<path d="M41.3441 13.4865C40.2659 14.5388 38.9214 15.0649 37.3106 15.0649C35.6998 15.0649 34.3553 14.5453 33.2771 13.506C32.2118 12.4538 31.6792 11.1612 31.6792 9.62837C31.6792 8.10849 32.2183 6.82243 33.2966 5.77021C34.3878 4.71798 35.7388 4.19187 37.3496 4.19187C38.9604 4.19187 40.2984 4.71798 41.3636 5.77021C42.4418 6.80944 42.9809 8.0955 42.9809 9.62837C42.9809 11.1483 42.4353 12.4343 41.3441 13.4865ZM37.3496 12.5123C38.168 12.5123 38.824 12.2395 39.3176 11.6939C39.8113 11.1353 40.0581 10.4468 40.0581 9.62837C40.0581 8.83596 39.7983 8.16045 39.2787 7.60186C38.772 7.03028 38.116 6.74449 37.3106 6.74449C36.4922 6.74449 35.8362 7.02379 35.3425 7.58238C34.8489 8.12798 34.6021 8.80998 34.6021 9.62837C34.6021 10.4208 34.8554 11.1028 35.362 11.6744C35.8817 12.233 36.5442 12.5123 37.3496 12.5123ZM54.2644 4.38672V14.8311H51.4V8.75152L47.3275 14.8311H44.541V4.38672H47.4054V10.4857L51.4779 4.38672H54.2644ZM61.2552 15.0649C59.6963 15.0649 58.3973 14.5388 57.358 13.4865C56.3318 12.4343 55.8187 11.1483 55.8187 9.62837C55.8187 8.12148 56.3383 6.84192 57.3775 5.78969C58.4168 4.72448 59.7223 4.19187 61.2941 4.19187C62.9699 4.19187 64.3534 4.80242 65.4446 6.02352L63.7104 7.77723C62.9829 7.08874 62.171 6.74449 61.2747 6.74449C60.5472 6.74449 59.9431 7.02379 59.4625 7.58238C58.9818 8.14097 58.7415 8.82297 58.7415 9.62837C58.7415 10.4468 58.9818 11.1353 59.4625 11.6939C59.9561 12.2395 60.5992 12.5123 61.3916 12.5123C62.21 12.5123 63.0089 12.142 63.7883 11.4016L65.5225 13.1553C64.951 13.7788 64.3404 14.253 63.6909 14.5777C63.0414 14.9025 62.2295 15.0649 61.2552 15.0649ZM66.8727 14.8311V4.38672H69.8345V8.67358L73.5758 4.38672H76.9858L73.1471 8.67358L77.4729 14.8311H73.9655L71.179 10.856L69.8345 12.3174V14.8311H66.8727Z" fill="white"/>
<path d="M32.3418 34.1868V20.7806H34.6995V22.4954C35.5959 21.2093 36.765 20.5663 38.1875 20.5663C39.4735 20.5663 40.6037 21.0534 41.5585 22.0277C42.4938 23.002 42.9809 24.3076 42.9809 25.9444C42.9809 27.5812 42.4938 28.8672 41.5585 29.8415C40.6037 30.8158 39.4735 31.2834 38.1875 31.2834C36.765 31.2834 35.5959 30.6794 34.6995 29.4713V34.1868H32.3418ZM37.6419 29.2374C38.4603 29.2374 39.1617 28.9452 39.7268 28.3216C40.2919 27.7176 40.5842 26.9186 40.5842 25.9054C40.5842 24.9311 40.2919 24.1517 39.7268 23.5281C39.1423 22.9241 38.4603 22.6123 37.6419 22.6123C36.8235 22.6123 36.1025 22.9241 35.5179 23.5476C34.9333 24.1712 34.6411 24.9701 34.6411 25.9444C34.6411 26.9186 34.9333 27.6981 35.5179 28.3216C36.1025 28.9452 36.8235 29.2374 37.6419 29.2374ZM50.2866 31.3029C48.7277 31.3029 47.4222 30.7963 46.3894 29.7441C45.3372 28.7113 44.8306 27.4448 44.8306 25.9444C44.8306 24.4634 45.3567 23.1969 46.4089 22.1446C47.4611 21.0924 48.7667 20.5663 50.3255 20.5663C51.8844 20.5663 53.1704 21.0924 54.2227 22.1252C55.2749 23.1774 55.801 24.444 55.801 25.9444C55.801 27.4253 55.2749 28.6918 54.2227 29.7441C53.1704 30.7963 51.8454 31.3029 50.2866 31.3029ZM50.3255 29.2569C51.2608 29.2569 52.0013 28.9452 52.5859 28.3021C53.151 27.6786 53.4432 26.8797 53.4432 25.9444C53.4432 25.0285 53.1315 24.2491 52.5469 23.6061C51.9428 22.963 51.1829 22.6318 50.2866 22.6318C49.3512 22.6318 48.6108 22.963 48.0457 23.5866C47.4611 24.2296 47.1883 25.009 47.1883 25.9444C47.1883 26.8602 47.4806 27.6396 48.0847 28.2826C48.6692 28.9452 49.4292 29.2569 50.3255 29.2569ZM64.2038 34.1868V30.3286C63.5802 30.9327 62.7813 31.225 61.846 31.225C60.5989 31.225 59.5856 30.7573 58.8257 29.822C58.0463 28.8867 57.676 27.5812 57.676 25.9249C57.676 24.2881 58.0463 23.002 58.8257 22.0472C59.6051 21.1119 60.6184 20.6248 61.8655 20.6248C62.7618 20.6248 63.5412 20.9755 64.2038 21.6575V17.4291H66.5615V21.6575C67.224 20.9755 68.0035 20.6248 68.8998 20.6248C70.1469 20.6248 71.1407 21.1119 71.9201 22.0667C72.6995 23.0215 73.0892 24.3076 73.0892 25.9444C73.0892 27.6006 72.6995 28.8867 71.9396 29.822C71.1601 30.7573 70.1664 31.225 68.9193 31.225C67.9645 31.225 67.1851 30.9327 66.5615 30.3286V34.1868H64.2038ZM62.5475 29.2569C63.132 29.2569 63.6776 29.0426 64.2038 28.5749V23.3528C63.6776 22.8851 63.132 22.6318 62.5475 22.6318C61.7291 22.6318 61.125 22.9436 60.6963 23.5281C60.2676 24.1322 60.0533 24.9506 60.0533 25.9638C60.0533 27.0161 60.2482 27.815 60.6768 28.3996C61.1055 28.9841 61.7291 29.2569 62.5475 29.2569ZM68.2373 29.2569C69.0557 29.2569 69.6597 28.9841 70.0884 28.3996C70.4976 27.815 70.712 26.9966 70.712 25.9444C70.712 24.9311 70.4976 24.1322 70.0689 23.5281C69.6403 22.9436 69.0362 22.6318 68.2373 22.6318C67.6917 22.6318 67.1266 22.8851 66.5615 23.3528V28.5749C67.0682 29.0426 67.6332 29.2569 68.2373 29.2569ZM80.2341 31.3029C78.7142 31.3029 77.4671 30.8158 76.4539 29.8025C75.4406 28.8088 74.9535 27.5227 74.9535 25.9249C74.9535 24.444 75.4211 23.1774 76.3759 22.1252C77.3112 21.0924 78.5193 20.5663 79.9808 20.5663C81.5396 20.5663 82.7477 21.1119 83.6051 22.1641C84.4625 23.2164 84.9107 24.5414 84.9107 26.1002C84.9107 26.3925 84.8912 26.6069 84.8717 26.7628H77.3112C77.4281 27.5812 77.7594 28.2242 78.305 28.6918C78.8311 29.1595 79.4936 29.3738 80.2731 29.3738C81.2863 29.3738 82.2021 28.9646 83.0595 28.1462L84.443 29.3738C83.3713 30.6599 81.9683 31.3029 80.2341 31.3029ZM77.2917 25.2039H82.5724C82.4944 24.4245 82.2216 23.762 81.7735 23.2553C81.3058 22.7487 80.7017 22.4954 79.9613 22.4954C79.2403 22.4954 78.6363 22.7487 78.1686 23.2553C77.6815 23.762 77.3892 24.405 77.2917 25.2039ZM92.033 31.3029C90.5131 31.3029 89.2465 30.7963 88.2333 29.7636C87.22 28.7308 86.7134 27.4642 86.7134 25.9833V25.9444C86.7134 24.4634 87.22 23.1969 88.2333 22.1446C89.2465 21.0924 90.5326 20.5663 92.0525 20.5663C93.7087 20.5663 95.0727 21.1704 96.1639 22.3395L94.7025 23.9178C93.8841 23.0605 92.9878 22.6318 92.033 22.6318C91.1756 22.6318 90.4741 22.963 89.909 23.5866C89.344 24.2296 89.0712 25.009 89.0712 25.9054V25.9444C89.0712 26.8797 89.344 27.6786 89.9285 28.3021C90.5131 28.9452 91.2535 29.2569 92.1499 29.2569C93.0852 29.2569 93.9815 28.8282 94.8194 27.9709L96.2419 29.3738C95.6768 29.9974 95.0727 30.4845 94.4102 30.8158C93.7477 31.147 92.9683 31.3029 92.033 31.3029ZM103.07 31.3029C101.55 31.3029 100.283 30.7963 99.2701 29.7636C98.2568 28.7308 97.7502 27.4642 97.7502 25.9833V25.9444C97.7502 24.4634 98.2568 23.1969 99.2701 22.1446C100.283 21.0924 101.569 20.5663 103.089 20.5663C104.746 20.5663 106.11 21.1704 107.201 22.3395L105.739 23.9178C104.921 23.0605 104.025 22.6318 103.07 22.6318C102.212 22.6318 101.511 22.963 100.946 23.5866C100.381 24.2296 100.108 25.009 100.108 25.9054V25.9444C100.108 26.8797 100.381 27.6786 100.965 28.3021C101.55 28.9452 102.29 29.2569 103.187 29.2569C104.122 29.2569 105.018 28.8282 105.856 27.9709L107.279 29.3738C106.714 29.9974 106.11 30.4845 105.447 30.8158C104.785 31.147 104.005 31.3029 103.07 31.3029ZM109.352 31.0691V20.7806H111.651V27.6786C113.795 24.6193 115.432 22.32 116.523 20.7806H118.744V31.0691H116.464V24.2101L111.573 31.0691H109.352ZM121.702 31.0691V20.7806H124.001V27.6786C126.145 24.6193 127.781 22.32 128.873 20.7806H131.094V31.0691H128.814V24.2101L123.923 31.0691H121.702Z" fill="white"/>
<path d="M2.52675 31.1689V2.64116H28.0795V31.1689H20.1732V9.56934H10.433V31.1689H2.52675Z" fill="white"/>
</svg>
