<svg width="144" height="37" viewBox="0 0 144 37" fill="none" xmlns="http://www.w3.org/2000/svg">
<path d="M44.5121 14.3114C43.3512 15.4442 41.9037 16.0107 40.1695 16.0107C38.4353 16.0107 36.9877 15.4512 35.8269 14.3324C34.6801 13.1995 34.1067 11.8079 34.1067 10.1576C34.1067 8.52131 34.6871 7.13672 35.8479 6.00388C37.0227 4.87104 38.4772 4.30462 40.2114 4.30462C41.9457 4.30462 43.3862 4.87104 44.533 6.00388C45.6938 7.12274 46.2743 8.50732 46.2743 10.1576C46.2743 11.794 45.6869 13.1785 44.5121 14.3114ZM40.2114 13.2625C41.0925 13.2625 41.7988 12.9688 42.3303 12.3814C42.8617 11.78 43.1275 11.0387 43.1275 10.1576C43.1275 9.30451 42.8478 8.57725 42.2883 7.97586C41.7429 7.36049 41.0366 7.05281 40.1695 7.05281C39.2884 7.05281 38.5821 7.3535 38.0507 7.95489C37.5192 8.54229 37.2535 9.27654 37.2535 10.1576C37.2535 11.0108 37.5262 11.745 38.0716 12.3604C38.6311 12.9618 39.3443 13.2625 40.2114 13.2625ZM58.4222 4.5144V15.7589H55.3383V9.2136L50.9538 15.7589H47.9538V4.5144H51.0377V11.0807L55.4222 4.5144H58.4222ZM65.9485 16.0107C64.2702 16.0107 62.8717 15.4442 61.7528 14.3114C60.648 13.1785 60.0955 11.794 60.0955 10.1576C60.0955 8.53529 60.6549 7.1577 61.7738 6.02486C62.8927 4.87803 64.2982 4.30462 65.9905 4.30462C67.7946 4.30462 69.2841 4.96194 70.4589 6.2766L68.5918 8.16467C67.8086 7.42343 66.9345 7.05281 65.9695 7.05281C65.1863 7.05281 64.536 7.3535 64.0185 7.95489C63.501 8.55627 63.2423 9.29052 63.2423 10.1576C63.2423 11.0387 63.501 11.78 64.0185 12.3814C64.55 12.9688 65.2423 13.2625 66.0954 13.2625C66.9765 13.2625 67.8366 12.8639 68.6757 12.0667L70.5428 13.9548C69.9275 14.6261 69.2701 15.1365 68.5709 15.4862C67.8716 15.8358 66.9975 16.0107 65.9485 16.0107ZM71.9964 15.7589V4.5144H75.1852V9.12969L79.213 4.5144H82.8843L78.7515 9.12969L83.4088 15.7589H79.6326L76.6327 11.4793L75.1852 13.0527V15.7589H71.9964Z" fill="#0B0A0A"/>
<path d="M34.82 36.5977V22.1644H37.3584V24.0105C38.3374 22.6259 39.5891 21.9336 41.1135 21.9336C42.5121 21.9336 43.7219 22.4581 44.7428 23.507C45.7638 24.542 46.2743 25.9475 46.2743 27.7237C46.2743 29.4719 45.7638 30.8705 44.7428 31.9194C43.7219 32.9544 42.5121 33.4719 41.1135 33.4719C39.5891 33.4719 38.3374 32.8215 37.3584 31.5208V36.5977H34.82ZM40.5261 31.2691C41.4212 31.2691 42.1694 30.9404 42.7708 30.2831C43.3862 29.6258 43.6939 28.7587 43.6939 27.6818C43.6939 26.6328 43.3862 25.7797 42.7708 25.1224C42.1555 24.4651 41.4072 24.1364 40.5261 24.1364C39.645 24.1364 38.8828 24.472 38.2395 25.1434C37.6101 25.8147 37.2954 26.6748 37.2954 27.7237C37.2954 28.7587 37.6101 29.6118 38.2395 30.2831C38.8828 30.9404 39.645 31.2691 40.5261 31.2691ZM54.1396 33.4928C52.4613 33.4928 51.0627 32.9334 49.9439 31.8145C48.825 30.6957 48.2656 29.3321 48.2656 27.7237C48.2656 26.1154 48.832 24.7518 49.9648 23.6329C51.0977 22.5001 52.5032 21.9336 54.1815 21.9336C55.8598 21.9336 57.2584 22.4931 58.3772 23.6119C59.5101 24.7308 60.0765 26.1014 60.0765 27.7237C60.0765 29.3181 59.5101 30.6817 58.3772 31.8145C57.2444 32.9334 55.8318 33.4928 54.1396 33.4928ZM54.1815 31.2901C55.1885 31.2901 55.9997 30.9474 56.615 30.2621C57.2304 29.5768 57.5381 28.7307 57.5381 27.7237C57.5381 26.7307 57.2164 25.8916 56.5731 25.2063C55.9297 24.507 55.1186 24.1574 54.1396 24.1574C53.1466 24.1574 52.3424 24.5 51.727 25.1853C51.1117 25.8706 50.804 26.7168 50.804 27.7237C50.804 28.7027 51.1257 29.5419 51.769 30.2412C52.4123 30.9404 53.2165 31.2901 54.1815 31.2901ZM69.123 36.5977V32.4439C68.4517 33.0872 67.6056 33.4089 66.5846 33.4089C65.242 33.4089 64.1581 32.9054 63.3329 31.8985C62.5078 30.8775 62.0952 29.4789 62.0952 27.7027C62.0952 25.9405 62.5078 24.549 63.3329 23.528C64.1721 22.5071 65.263 21.9966 66.6056 21.9966C67.5706 21.9966 68.4097 22.3672 69.123 23.1084V18.5561H71.6614V23.1084C72.3747 22.3672 73.2138 21.9966 74.1789 21.9966C75.5215 21.9966 76.6054 22.5141 77.4305 23.549C78.2697 24.5699 78.6892 25.9615 78.6892 27.7237C78.6892 29.4999 78.2767 30.8915 77.4515 31.8985C76.6264 32.9054 75.5425 33.4089 74.1998 33.4089C73.1789 33.4089 72.3327 33.0872 71.6614 32.4439V36.5977H69.123ZM67.3398 31.2901C67.9692 31.2901 68.5636 31.0453 69.123 30.5558V24.9336C68.5636 24.4161 67.9692 24.1574 67.3398 24.1574C66.4727 24.1574 65.8084 24.479 65.3469 25.1224C64.8853 25.7657 64.6546 26.6398 64.6546 27.7447C64.6546 28.8636 64.8784 29.7377 65.3259 30.367C65.7874 30.9824 66.4587 31.2901 67.3398 31.2901ZM73.4656 31.2901C74.3467 31.2901 75.011 30.9824 75.4585 30.367C75.9061 29.7377 76.1299 28.8566 76.1299 27.7237C76.1299 26.6328 75.8991 25.7657 75.4376 25.1224C74.99 24.479 74.3327 24.1574 73.4656 24.1574C72.8782 24.1574 72.2768 24.4161 71.6614 24.9336V30.5558C72.2209 31.0453 72.8222 31.2901 73.4656 31.2901ZM86.3815 33.4928C84.7591 33.4928 83.4025 32.9544 82.3116 31.8775C81.2348 30.8006 80.6963 29.409 80.6963 27.7027C80.6963 26.0944 81.2068 24.7308 82.2277 23.6119C83.2487 22.4931 84.5424 21.9336 86.1088 21.9336C87.7871 21.9336 89.0877 22.5071 90.0108 23.6539C90.9478 24.7867 91.4163 26.1993 91.4163 27.8916C91.4163 28.1992 91.4024 28.437 91.3744 28.6048H83.2347C83.3746 29.4859 83.7312 30.1782 84.3046 30.6817C84.878 31.1712 85.5843 31.416 86.4234 31.416C87.5143 31.416 88.5143 30.9754 89.4234 30.0943L90.9129 31.416C89.766 32.8005 88.2556 33.4928 86.3815 33.4928ZM83.2137 26.9265H88.8989C88.815 26.0734 88.5283 25.3741 88.0388 24.8287C87.5493 24.2832 86.899 24.0105 86.0878 24.0105C85.3186 24.0105 84.6752 24.2832 84.1578 24.8287C83.6403 25.3601 83.3256 26.0594 83.2137 26.9265ZM99.0843 33.4928C97.448 33.4928 96.0844 32.9404 94.9935 31.8355C93.9026 30.7167 93.3572 29.3601 93.3572 27.7657V27.7237C93.3572 26.1294 93.9026 24.7657 94.9935 23.6329C96.0984 22.5001 97.469 21.9336 99.1053 21.9336C100.895 21.9336 102.371 22.57 103.532 23.8427L101.958 25.542C101.077 24.6189 100.119 24.1574 99.0843 24.1574C98.1753 24.1574 97.413 24.5 96.7977 25.1853C96.1963 25.8706 95.8956 26.7028 95.8956 27.6818V27.7237C95.8956 28.7307 96.2033 29.5768 96.8187 30.2621C97.448 30.9474 98.2452 31.2901 99.2102 31.2901C100.231 31.2901 101.189 30.8286 102.084 29.9055L103.616 31.416C103.014 32.0873 102.357 32.6047 101.644 32.9684C100.944 33.318 100.091 33.4928 99.0843 33.4928ZM110.967 33.4928C109.33 33.4928 107.967 32.9404 106.876 31.8355C105.785 30.7167 105.24 29.3601 105.24 27.7657V27.7237C105.24 26.1294 105.785 24.7657 106.876 23.6329C107.981 22.5001 109.351 21.9336 110.988 21.9336C112.778 21.9336 114.253 22.57 115.414 23.8427L113.841 25.542C112.96 24.6189 112.002 24.1574 110.967 24.1574C110.058 24.1574 109.295 24.5 108.68 25.1853C108.079 25.8706 107.778 26.7028 107.778 27.6818V27.7237C107.778 28.7307 108.086 29.5768 108.701 30.2621C109.33 30.9474 110.128 31.2901 111.093 31.2901C112.114 31.2901 113.072 30.8286 113.967 29.9055L115.498 31.416C114.897 32.0873 114.239 32.6047 113.526 32.9684C112.827 33.318 111.974 33.4928 110.967 33.4928ZM117.73 33.2411V22.1644H120.206V29.5908C122.527 26.2902 124.276 23.8147 125.45 22.1644H127.842V33.2411H125.388V25.8566L120.122 33.2411H117.73ZM131.026 33.2411V22.1644H133.502V29.5908C135.823 26.2902 137.572 23.8147 138.746 22.1644H141.138V33.2411H138.683V25.8566L133.418 33.2411H131.026Z" fill="#0B0A0A"/>
<path d="M2.72033 33.1992V2.48582H30.2308V33.1992H21.7188V9.94479H11.2323V33.1992H2.72033Z" fill="#0B0A0A"/>
</svg>
