<svg width="24" height="24" viewBox="0 0 24 24" fill="none" xmlns="http://www.w3.org/2000/svg">
<path fill-rule="evenodd" clip-rule="evenodd" d="M12 2.75C10.2051 2.75 8.75 4.20507 8.75 6C8.75 7.79493 10.2051 9.25 12 9.25C13.7949 9.25 15.25 7.79493 15.25 6C15.25 4.20507 13.7949 2.75 12 2.75ZM7.25 6C7.25 3.37665 9.37665 1.25 12 1.25C14.6234 1.25 16.75 3.37665 16.75 6C16.75 8.62335 14.6234 10.75 12 10.75C9.37665 10.75 7.25 8.62335 7.25 6Z" fill="#0B0A0A"/>
<path fill-rule="evenodd" clip-rule="evenodd" d="M6.71084 14.9718C5.37129 15.7253 4.74989 16.6488 4.74989 17.5C4.74989 18.8076 4.7902 19.5439 5.47349 20.1003C5.84403 20.4021 6.46343 20.6966 7.52369 20.9112C8.58064 21.1252 10.0257 21.25 11.9999 21.25C13.9741 21.25 15.4191 21.1252 16.4761 20.9112C17.5363 20.6966 18.1558 20.4021 18.5263 20.1003C19.2096 19.5439 19.2499 18.8076 19.2499 17.5C19.2499 16.6488 18.6285 15.7253 17.2889 14.9718C15.9729 14.2315 14.1045 13.75 11.9999 13.75C9.89533 13.75 8.02685 14.2315 6.71084 14.9718ZM5.97544 13.6644C7.55493 12.776 9.68645 12.25 11.9999 12.25C14.3133 12.25 16.4448 12.776 18.0243 13.6644C19.5803 14.5397 20.7499 15.8662 20.7499 17.5C20.7499 17.5337 20.7499 17.5677 20.75 17.6019C20.7511 18.7637 20.7525 20.2218 19.4735 21.2634C18.844 21.776 17.9634 22.1406 16.7737 22.3814C15.5806 22.6229 14.0257 22.75 11.9999 22.75C9.97411 22.75 8.41914 22.6229 7.22609 22.3814C6.03635 22.1406 5.15575 21.776 4.52629 21.2634C3.24728 20.2218 3.24869 18.7637 3.24982 17.6019C3.24986 17.5677 3.24989 17.5337 3.24989 17.5C3.24989 15.8662 4.41949 14.5397 5.97544 13.6644Z" fill="#0B0A0A"/>
</svg>
